<svg xmlns="http://www.w3.org/2000/svg" version="1.1" xmlns:xlink="http://www.w3.org/1999/xlink" xmlns:svgjs="http://svgjs.dev/svgjs" width="1000" height="1000" viewBox="0 0 1000 1000"><rect width="1000" height="1000" fill="#ffffff"></rect><g transform="matrix(0.7,0,0,0.7,150.31239778417796,183.85619433198383)"><svg viewBox="0 0 273 247" data-background-color="#ffffff" preserveAspectRatio="xMidYMid meet" height="904" width="1000" xmlns="http://www.w3.org/2000/svg" xmlns:xlink="http://www.w3.org/1999/xlink"><g id="tight-bounds" transform="matrix(1,0,0,1,-0.12183513582940009,-0.09999999999999432)"><svg viewBox="0 0 273.2436702716588 247.2" height="247.2" width="273.2436702716588"><g><svg viewBox="0 0 395.52 357.8218075565833" height="247.2" width="273.2436702716588"><g transform="matrix(1,0,0,1,0,272.76225275678877)"><svg viewBox="0 0 395.52 85.05955479979451" height="85.05955479979451" width="395.52"><g><svg viewBox="0 0 395.52 85.05955479979451" height="85.05955479979451" width="395.52"><g><svg viewBox="0 0 395.52 48.00300370522849" height="48.00300370522849" width="395.52"><g transform="matrix(1,0,0,1,0,0)"><svg width="395.52" viewBox="3.25 -35.5 296.49 35.99" height="48.00300370522849" data-palette-color="#0080ff"><path d="M10.25-7.01L10.25 0 3.25 0 3.25-35.01 10.25-35.01 10.25-17.5 23.29-35.01 31.25-35.01 20.19-20.24 31.25 0 23.29 0 15.6-14.16 10.25-7.01ZM41.09-13.99L55.1-13.99 55.1-21Q55.1-22.44 54.55-23.72 54-25 53.05-25.95 52.1-26.9 50.82-27.45 49.53-28 48.09-28L48.09-28Q46.65-28 45.37-27.45 44.09-26.9 43.14-25.95 42.19-25 41.64-23.72 41.09-22.44 41.09-21L41.09-21 41.09-13.99ZM62.11-21L62.11 0 55.1 0 55.1-7.01 41.09-7.01 41.09 0 34.1 0 34.1-21Q34.1-23.9 35.2-26.45 36.3-29 38.19-30.91 40.09-32.81 42.64-33.91 45.19-35.01 48.09-35.01L48.09-35.01Q51-35.01 53.55-33.91 56.1-32.81 58.01-30.91 59.91-29 61.01-26.45 62.11-23.9 62.11-21L62.11-21ZM74.78-13.99L88.79-13.99 88.79-21Q88.79-22.44 88.24-23.72 87.69-25 86.74-25.95 85.79-26.9 84.5-27.45 83.22-28 81.78-28L81.78-28Q80.34-28 79.06-27.45 77.78-26.9 76.83-25.95 75.87-25 75.32-23.72 74.78-22.44 74.78-21L74.78-21 74.78-13.99ZM95.8-21L95.8 0 88.79 0 88.79-7.01 74.78-7.01 74.78 0 67.79 0 67.79-21Q67.79-23.9 68.89-26.45 69.99-29 71.88-30.91 73.77-32.81 76.33-33.91 78.88-35.01 81.78-35.01L81.78-35.01Q84.69-35.01 87.24-33.91 89.79-32.81 91.69-30.91 93.6-29 94.7-26.45 95.8-23.9 95.8-21L95.8-21ZM136.61-25L136.61 0 129.63 0 129.63-25Q129.63-25.73 129.35-26.37 129.07-27 128.59-27.48 128.12-27.95 127.48-28.22 126.85-28.49 126.12-28.49L126.12-28.49Q125.38-28.49 124.75-28.22 124.11-27.95 123.64-27.48 123.16-27 122.89-26.37 122.62-25.73 122.62-25L122.62-25 122.62 0 115.62 0 115.62-25Q115.62-25.73 115.35-26.37 115.08-27 114.6-27.48 114.13-27.95 113.49-28.22 112.86-28.49 112.13-28.49L112.13-28.49Q111.39-28.49 110.76-28.22 110.12-27.95 109.65-27.48 109.17-27 108.9-26.37 108.64-25.73 108.64-25L108.64-25 108.64 0 101.63 0 101.63-25Q101.63-27.17 102.45-29.09 103.26-31.01 104.69-32.43 106.12-33.86 108.04-34.68 109.95-35.5 112.13-35.5L112.13-35.5Q114.08-35.5 115.89-34.8 117.69-34.11 119.13-32.79L119.13-32.79Q120.57-34.11 122.37-34.8 124.16-35.5 126.12-35.5L126.12-35.5Q128.29-35.5 130.2-34.68 132.12-33.86 133.55-32.43 134.98-31.01 135.8-29.09 136.61-27.17 136.61-25L136.61-25ZM142.57-21L163.08-21 163.08-14.36 142.57-14.36 142.57-21ZM204.04-35.01L204.04-10.01Q204.04-7.84 203.22-5.92 202.4-4 200.98-2.58 199.55-1.15 197.63-0.33 195.72 0.49 193.54 0.49L193.54 0.49Q191.59 0.49 189.79-0.2 188-0.88 186.56-2.2L186.56-2.2Q185.12-0.88 183.31-0.2 181.51 0.49 179.55 0.49L179.55 0.49Q177.38 0.49 175.46-0.33 173.55-1.15 172.12-2.58 170.69-4 169.87-5.92 169.05-7.84 169.05-10.01L169.05-10.01 169.05-35.01 176.06-35.01 176.06-10.01Q176.06-9.28 176.33-8.63 176.6-7.98 177.07-7.51 177.55-7.03 178.19-6.76 178.82-6.49 179.55-6.49L179.55-6.49Q180.29-6.49 180.92-6.76 181.55-7.03 182.03-7.51 182.51-7.98 182.78-8.63 183.04-9.28 183.04-10.01L183.04-10.01 183.04-35.01 190.05-35.01 190.05-10.01Q190.05-9.28 190.32-8.63 190.59-7.98 191.06-7.51 191.54-7.03 192.18-6.76 192.81-6.49 193.54-6.49L193.54-6.49Q194.27-6.49 194.91-6.76 195.54-7.03 196.02-7.51 196.5-7.98 196.78-8.63 197.06-9.28 197.06-10.01L197.06-10.01 197.06-35.01 204.04-35.01ZM216.88-13.99L230.89-13.99 230.89-21Q230.89-22.44 230.34-23.72 229.79-25 228.84-25.95 227.89-26.9 226.61-27.45 225.33-28 223.89-28L223.89-28Q222.45-28 221.16-27.45 219.88-26.9 218.93-25.95 217.98-25 217.43-23.72 216.88-22.44 216.88-21L216.88-21 216.88-13.99ZM237.9-21L237.9 0 230.89 0 230.89-7.01 216.88-7.01 216.88 0 209.9 0 209.9-21Q209.9-23.9 211-26.45 212.09-29 213.99-30.91 215.88-32.81 218.43-33.91 220.98-35.01 223.89-35.01L223.89-35.01Q226.79-35.01 229.34-33.91 231.89-32.81 233.8-30.91 235.7-29 236.8-26.45 237.9-23.9 237.9-21L237.9-21ZM268.49-7.01L268.49 0 243.98 0 243.98-35.01 250.98-35.01 250.98-7.01 268.49-7.01ZM278.72-13.99L292.73-13.99 292.73-21Q292.73-22.44 292.18-23.72 291.63-25 290.68-25.95 289.73-26.9 288.44-27.45 287.16-28 285.72-28L285.72-28Q284.28-28 283-27.45 281.72-26.9 280.77-25.95 279.81-25 279.26-23.72 278.72-22.44 278.72-21L278.72-21 278.72-13.99ZM299.74-21L299.74 0 292.73 0 292.73-7.01 278.72-7.01 278.72 0 271.73 0 271.73-21Q271.73-23.9 272.83-26.45 273.93-29 275.82-30.91 277.71-32.81 280.27-33.91 282.82-35.01 285.72-35.01L285.72-35.01Q288.63-35.01 291.18-33.91 293.73-32.81 295.63-30.91 297.54-29 298.64-26.45 299.74-23.9 299.74-21L299.74-21Z" opacity="1" transform="matrix(1,0,0,1,0,0)" fill="#0080ff" class="undefined-text-0" data-fill-palette-color="primary" id="text-0"></path></svg></g></svg></g><g transform="matrix(1,0,0,1,75.54432,59.33536080794401)"><svg viewBox="0 0 244.43135999999998 25.724193991850495" height="25.724193991850495" width="244.43135999999998"><g transform="matrix(1,0,0,1,0,0)"><svg width="244.43135999999998" viewBox="1.85 -37 355.82 37.45" height="25.724193991850495" data-palette-color="#0080ff"><path d="M35.75-24.75L28.9-24.75Q27.55-27.35 25.15-28.68 22.75-30 19.6-30L19.6-30Q16.15-30 13.45-28.45 10.75-26.9 9.22-24.05 7.7-21.2 7.7-17.45L7.7-17.45Q7.7-13.7 9.22-10.83 10.75-7.95 13.45-6.4 16.15-4.85 19.6-4.85L19.6-4.85Q24.25-4.85 27.15-7.45 30.05-10.05 30.7-14.5L30.7-14.5 17.65-14.5 17.65-19.05 36.8-19.05 36.8-14.6Q36.25-10.55 33.93-7.15 31.6-3.75 27.88-1.73 24.15 0.3 19.6 0.3L19.6 0.3Q14.7 0.3 10.65-1.98 6.6-4.25 4.23-8.3 1.85-12.35 1.85-17.45L1.85-17.45Q1.85-22.55 4.23-26.6 6.6-30.65 10.68-32.93 14.75-35.2 19.6-35.2L19.6-35.2Q25.15-35.2 29.48-32.48 33.8-29.75 35.75-24.75L35.75-24.75ZM56.65-28Q59.8-28 62.27-26.65 64.75-25.3 66.17-22.65 67.6-20 67.6-16.25L67.6-16.25 67.6 0 61.95 0 61.95-15.4Q61.95-19.1 60.1-21.08 58.25-23.05 55.05-23.05L55.05-23.05Q51.85-23.05 49.97-21.08 48.1-19.1 48.1-15.4L48.1-15.4 48.1 0 42.4 0 42.4-37 48.1-37 48.1-24.35Q49.55-26.1 51.77-27.05 54-28 56.65-28L56.65-28ZM72.95-13.9Q72.95-18.05 74.67-21.25 76.4-24.45 79.37-26.23 82.35-28 85.95-28L85.95-28Q89.2-28 91.62-26.73 94.05-25.45 95.5-23.55L95.5-23.55 95.5-27.55 101.25-27.55 101.25 0 95.5 0 95.5-4.1Q94.05-2.15 91.55-0.85 89.05 0.45 85.85 0.45L85.85 0.45Q82.3 0.45 79.35-1.38 76.4-3.2 74.67-6.48 72.95-9.75 72.95-13.9L72.95-13.9ZM95.5-13.8Q95.5-16.65 94.32-18.75 93.15-20.85 91.25-21.95 89.35-23.05 87.15-23.05L87.15-23.05Q84.95-23.05 83.05-21.98 81.15-20.9 79.97-18.82 78.8-16.75 78.8-13.9L78.8-13.9Q78.8-11.05 79.97-8.9 81.15-6.75 83.07-5.63 85-4.5 87.15-4.5L87.15-4.5Q89.35-4.5 91.25-5.6 93.15-6.7 94.32-8.83 95.5-10.95 95.5-13.8L95.5-13.8ZM114.44-23.55Q115.69-25.65 117.77-26.83 119.84-28 122.69-28L122.69-28 122.69-22.1 121.24-22.1Q117.89-22.1 116.17-20.4 114.44-18.7 114.44-14.5L114.44-14.5 114.44 0 108.74 0 108.74-27.55 114.44-27.55 114.44-23.55ZM164.54-27.55L151.84-13.75 164.54 0 156.84 0 146.64-11.85 146.64 0 140.94 0 140.94-37 146.64-37 146.64-15.5 156.64-27.55 164.54-27.55ZM180.58 0.45Q176.69 0.45 173.53-1.33 170.38-3.1 168.58-6.33 166.78-9.55 166.78-13.8L166.78-13.8Q166.78-18 168.63-21.25 170.48-24.5 173.69-26.25 176.88-28 180.83-28L180.83-28Q184.78-28 187.98-26.25 191.19-24.5 193.03-21.25 194.88-18 194.88-13.8L194.88-13.8Q194.88-9.6 192.98-6.35 191.08-3.1 187.81-1.33 184.53 0.45 180.58 0.45L180.58 0.45ZM180.58-4.5Q182.78-4.5 184.71-5.55 186.63-6.6 187.83-8.7 189.03-10.8 189.03-13.8L189.03-13.8Q189.03-16.8 187.88-18.88 186.73-20.95 184.83-22 182.94-23.05 180.73-23.05L180.73-23.05Q178.53-23.05 176.66-22 174.78-20.95 173.69-18.88 172.58-16.8 172.58-13.8L172.58-13.8Q172.58-9.35 174.86-6.93 177.13-4.5 180.58-4.5L180.58-4.5ZM240.13 0L232.68 0 219.23-15.55 219.23 0 213.53 0 213.53-34.75 219.23-34.75 219.23-18.9 232.73-34.75 239.88-34.75 224.78-17.35 240.13 0ZM243.28-13.9Q243.28-18.05 245-21.25 246.73-24.45 249.7-26.23 252.68-28 256.28-28L256.28-28Q259.53-28 261.95-26.73 264.38-25.45 265.83-23.55L265.83-23.55 265.83-27.55 271.58-27.55 271.58 0 265.83 0 265.83-4.1Q264.38-2.15 261.88-0.85 259.38 0.45 256.18 0.45L256.18 0.45Q252.63 0.45 249.68-1.38 246.73-3.2 245-6.48 243.28-9.75 243.28-13.9L243.28-13.9ZM265.83-13.8Q265.83-16.65 264.65-18.75 263.48-20.85 261.58-21.95 259.68-23.05 257.48-23.05L257.48-23.05Q255.28-23.05 253.38-21.98 251.48-20.9 250.3-18.82 249.13-16.75 249.13-13.9L249.13-13.9Q249.13-11.05 250.3-8.9 251.48-6.75 253.4-5.63 255.33-4.5 257.48-4.5L257.48-4.5Q259.68-4.5 261.58-5.6 263.48-6.7 264.65-8.83 265.83-10.95 265.83-13.8L265.83-13.8ZM277.18-13.9Q277.18-18.05 278.9-21.25 280.63-24.45 283.6-26.23 286.57-28 290.18-28L290.18-28Q293.43-28 295.85-26.73 298.27-25.45 299.72-23.55L299.72-23.55 299.72-27.55 305.47-27.55 305.47 0 299.72 0 299.72-4.1Q298.27-2.15 295.77-0.85 293.27 0.45 290.07 0.45L290.07 0.45Q286.52 0.45 283.57-1.38 280.63-3.2 278.9-6.48 277.18-9.75 277.18-13.9L277.18-13.9ZM299.72-13.8Q299.72-16.65 298.55-18.75 297.38-20.85 295.47-21.95 293.57-23.05 291.38-23.05L291.38-23.05Q289.18-23.05 287.27-21.98 285.38-20.9 284.2-18.82 283.02-16.75 283.02-13.9L283.02-13.9Q283.02-11.05 284.2-8.9 285.38-6.75 287.3-5.63 289.22-4.5 291.38-4.5L291.38-4.5Q293.57-4.5 295.47-5.6 297.38-6.7 298.55-8.83 299.72-10.95 299.72-13.8L299.72-13.8ZM346.32-28Q349.57-28 352.15-26.65 354.72-25.3 356.2-22.65 357.67-20 357.67-16.25L357.67-16.25 357.67 0 352.02 0 352.02-15.4Q352.02-19.1 350.17-21.08 348.32-23.05 345.12-23.05L345.12-23.05Q341.92-23.05 340.05-21.08 338.17-19.1 338.17-15.4L338.17-15.4 338.17 0 332.52 0 332.52-15.4Q332.52-19.1 330.67-21.08 328.82-23.05 325.62-23.05L325.62-23.05Q322.42-23.05 320.55-21.08 318.67-19.1 318.67-15.4L318.67-15.4 318.67 0 312.97 0 312.97-27.55 318.67-27.55 318.67-24.4Q320.07-26.1 322.22-27.05 324.37-28 326.82-28L326.82-28Q330.12-28 332.72-26.6 335.32-25.2 336.72-22.55L336.72-22.55Q337.97-25.05 340.62-26.53 343.27-28 346.32-28L346.32-28Z" opacity="1" transform="matrix(1,0,0,1,0,0)" fill="#0080ff" class="undefined-text-1" data-fill-palette-color="secondary" id="text-1"></path></svg></g></svg></g></svg></g></svg></g><g transform="matrix(1,0,0,1,75.54432,0)"><svg viewBox="0 0 244.43135999999998 244.43135999999998" height="244.43135999999998" width="244.43135999999998"><g><svg viewBox="0 0 244.43135999999998 244.43135999999998" height="244.43135999999998" width="244.43135999999998"><g transform="matrix(1,0,0,1,64.63121965685824,64.60265593644992)"><svg viewBox="0 0 115.16892068628353 115.22604812710014" height="115.22604812710014" width="115.16892068628353"><g><svg xmlns:dc="http://purl.org/dc/elements/1.1/" xmlns:cc="http://creativecommons.org/ns#" xmlns:rdf="http://www.w3.org/1999/02/22-rdf-syntax-ns#" xmlns:svg="http://www.w3.org/2000/svg" xmlns="http://www.w3.org/2000/svg" xmlns:sodipodi="http://sodipodi.sourceforge.net/DTD/sodipodi-0.dtd" xmlns:inkscape="http://www.inkscape.org/namespaces/inkscape" preserveAspectRatio="xMidYMid" viewBox="0 0 63 63.03125" version="1.1" x="0" y="0" height="115.22604812710014" width="115.16892068628353" class="icon-gn-0" data-fill-palette-color="accent" id="gn-0"><path d="M9.5 0C4.253 0 0 4.25 0 9.5L0 53.531C0 58.781 4.253 63.031 9.5 63.031L53.5 63.031C58.747 63.031 63 58.781 63 53.531L63 9.5C63 4.25 58.747 0 53.5 0L9.5 0zM10 3L17 3 17 60.031 10 60.031 10 3zM20 3L35 3 35 60.031 20 60.031 20 3zM38 3L53.5 3C57.09 3 60 5.908 60 9.5L60 53.531C60 57.123 57.09 60.031 53.5 60.031L38 60.031 38 3zM6.969 3.5C6.978 3.496 6.991 3.504 7 3.5L7 59.531C4.653 58.55 3 56.236 3 53.531L3 9.5C3 6.806 4.636 4.487 6.969 3.5z" fill="#010c80" fill-rule="evenodd" data-fill-palette-color="accent"></path></svg></g></svg></g><path d="M20.89 90.338L25.54 92.01 23.869 96.66 0.635 88.31 2.307 83.659 13.923 87.834 5.416 75.009 7.314 69.726 14.475 80.588 30.548 78.077 28.649 83.359 17.419 85.082ZM30.445 60.285L36.283 52.309 32.295 49.39C31.748 48.99 31.155 48.715 30.516 48.567 29.877 48.419 29.245 48.393 28.62 48.489 27.995 48.586 27.4 48.802 26.836 49.137 26.272 49.471 25.789 49.912 25.389 50.459V50.459C24.988 51.006 24.716 51.596 24.571 52.23 24.423 52.869 24.397 53.501 24.494 54.126 24.591 54.752 24.804 55.349 25.135 55.919 25.47 56.483 25.91 56.965 26.457 57.366V57.366ZM35.214 45.403L47.161 54.148 44.242 58.135 40.254 55.216 34.416 63.192 38.404 66.111 35.497 70.082 23.551 61.337C22.446 60.528 21.561 59.561 20.897 58.437 20.233 57.313 19.805 56.125 19.611 54.874 19.414 53.629 19.461 52.371 19.754 51.098 20.047 49.826 20.596 48.64 21.401 47.54V47.54C22.21 46.435 23.177 45.551 24.301 44.887 25.426 44.223 26.613 43.794 27.864 43.601 29.114 43.407 30.376 43.457 31.648 43.75 32.921 44.043 34.109 44.594 35.214 45.403ZM53.614 35.764L61.565 29.892 58.629 25.917C58.226 25.372 57.742 24.933 57.176 24.601 56.61 24.269 56.015 24.056 55.389 23.962 54.763 23.867 54.131 23.896 53.493 24.047 52.855 24.199 52.263 24.476 51.717 24.878V24.878C51.172 25.281 50.736 25.763 50.409 26.325 50.077 26.89 49.864 27.486 49.77 28.112 49.676 28.738 49.702 29.372 49.847 30.014 49.999 30.652 50.276 31.244 50.678 31.789V31.789ZM62.604 22.981L71.4 34.89 67.424 37.826 64.488 33.851 56.538 39.723 59.474 43.698 55.515 46.622 46.72 34.713C45.906 33.612 45.35 32.425 45.052 31.154 44.753 29.883 44.698 28.622 44.886 27.37 45.069 26.123 45.49 24.936 46.149 23.808 46.808 22.681 47.685 21.713 48.781 20.903V20.903C49.883 20.09 51.069 19.534 52.341 19.235 53.612 18.937 54.873 18.882 56.124 19.07 57.376 19.258 58.565 19.682 59.692 20.341 60.82 21 61.79 21.88 62.604 22.981ZM99.616 5.915L105.024 22.697 100.331 24.209 94.922 7.428C94.816 7.099 94.656 6.812 94.441 6.567 94.221 6.325 93.97 6.132 93.688 5.988 93.407 5.843 93.105 5.759 92.784 5.734 92.461 5.703 92.138 5.74 91.815 5.844V5.844C91.486 5.95 91.199 6.11 90.955 6.324 90.708 6.531 90.513 6.776 90.369 7.058 90.224 7.339 90.137 7.642 90.106 7.965 90.075 8.288 90.112 8.615 90.218 8.944V8.944L95.627 25.725 90.923 27.241 85.515 10.46C85.409 10.131 85.252 9.843 85.044 9.596 84.83 9.352 84.582 9.158 84.301 9.013 84.019 8.869 83.718 8.785 83.396 8.76 83.073 8.729 82.747 8.766 82.418 8.872V8.872C82.095 8.976 81.812 9.135 81.567 9.349 81.321 9.557 81.122 9.803 80.971 10.086 80.827 10.368 80.743 10.669 80.718 10.991 80.687 11.314 80.724 11.64 80.83 11.969V11.969L86.239 28.751 81.536 30.267 76.127 13.485C75.813 12.511 75.702 11.539 75.796 10.569 75.887 9.592 76.149 8.681 76.582 7.837 77.013 6.986 77.599 6.241 78.341 5.603 79.08 4.959 79.934 4.481 80.902 4.169V4.169C81.779 3.886 82.671 3.769 83.577 3.819 84.486 3.875 85.357 4.093 86.192 4.472V4.472C86.648 3.677 87.228 2.992 87.932 2.416 88.633 1.848 89.422 1.423 90.299 1.14V1.14C91.267 0.828 92.239 0.718 93.216 0.809 94.19 0.894 95.101 1.156 95.948 1.595 96.792 2.028 97.537 2.614 98.181 3.354 98.823 4.087 99.302 4.94 99.616 5.915ZM116.285 7.03L130.744 6.901 130.786 11.579 116.327 11.708ZM172.928 7.139L167.828 24.017C167.533 24.991 167.071 25.853 166.44 26.604 165.81 27.355 165.076 27.955 164.239 28.404 163.403 28.852 162.497 29.13 161.522 29.24 160.548 29.349 159.573 29.256 158.6 28.962V28.962C157.718 28.695 156.921 28.284 156.211 27.73 155.492 27.18 154.897 26.511 154.426 25.725V25.725C153.599 26.119 152.734 26.346 151.83 26.406 150.925 26.472 150.031 26.372 149.149 26.106V26.106C148.175 25.811 147.313 25.349 146.562 24.718 145.811 24.088 145.211 23.354 144.763 22.517 144.314 21.681 144.036 20.775 143.927 19.8 143.817 18.825 143.91 17.851 144.204 16.878V16.878L149.305 0 154.035 1.43 148.935 18.308C148.835 18.639 148.803 18.965 148.84 19.288 148.869 19.616 148.958 19.919 149.107 20.197 149.263 20.478 149.465 20.723 149.713 20.933 149.962 21.143 150.248 21.296 150.572 21.394V21.394C150.903 21.495 151.23 21.526 151.553 21.489 151.876 21.452 152.177 21.359 152.456 21.209 152.734 21.06 152.98 20.858 153.191 20.603 153.394 20.353 153.546 20.062 153.646 19.731V19.731L158.747 2.853 163.477 4.283 158.376 21.161C158.276 21.492 158.245 21.819 158.282 22.142 158.317 22.471 158.409 22.775 158.558 23.054 158.708 23.333 158.907 23.577 159.155 23.786 159.403 23.996 159.693 24.151 160.024 24.251V24.251C160.348 24.349 160.672 24.379 160.995 24.342 161.317 24.305 161.618 24.212 161.897 24.063 162.176 23.913 162.424 23.712 162.642 23.459 162.852 23.211 163.007 22.922 163.107 22.591V22.591L168.208 5.713ZM185.116 31.251L193.161 36.993 196.032 32.97C196.426 32.418 196.693 31.822 196.834 31.181 196.974 30.54 196.993 29.908 196.888 29.284 196.784 28.66 196.561 28.068 196.22 27.508 195.878 26.948 195.432 26.471 194.88 26.077V26.077C194.328 25.683 193.734 25.418 193.099 25.281 192.459 25.14 191.826 25.122 191.202 25.226 190.578 25.33 189.983 25.551 189.417 25.889 188.857 26.23 188.38 26.677 187.987 27.229V27.229ZM200.054 35.841L191.454 47.892 187.432 45.021 190.302 40.999 182.257 35.257 179.387 39.28 175.381 36.421 183.981 24.37C184.776 23.255 185.732 22.359 186.848 21.682 187.965 21.005 189.147 20.562 190.395 20.353 191.638 20.14 192.897 20.173 194.173 20.451 195.449 20.728 196.641 21.263 197.75 22.054V22.054C198.865 22.85 199.761 23.805 200.438 24.922 201.116 26.038 201.559 27.22 201.767 28.469 201.976 29.717 201.942 30.979 201.664 32.255 201.386 33.531 200.85 34.726 200.054 35.841ZM213.82 67.078L209.914 70.105 199.326 56.441 218.842 41.319 221.869 45.225 206.259 57.321ZM225.282 79.725L228.957 88.9 233.545 87.062C234.174 86.81 234.721 86.453 235.185 85.989 235.649 85.526 236.006 85.003 236.255 84.422 236.504 83.84 236.636 83.221 236.651 82.565 236.666 81.909 236.547 81.267 236.295 80.638V80.638C236.043 80.008 235.686 79.465 235.226 79.007 234.762 78.542 234.24 78.186 233.658 77.937 233.076 77.688 232.456 77.553 231.798 77.532 231.142 77.517 230.499 77.635 229.87 77.887V77.887ZM235.382 91.65L221.638 97.155 219.801 92.567 224.389 90.73 220.714 81.555 216.126 83.392 214.296 78.823 228.04 73.319C229.311 72.81 230.6 72.571 231.905 72.603 233.21 72.635 234.445 72.9 235.608 73.398 236.769 73.89 237.812 74.597 238.736 75.519 239.66 76.442 240.376 77.535 240.883 78.8V78.8C241.392 80.071 241.63 81.36 241.598 82.665 241.566 83.97 241.301 85.205 240.803 86.368 240.305 87.532 239.595 88.575 238.672 89.5 237.75 90.424 236.653 91.141 235.382 91.65ZM12.74 162.07L8.09 163.741 6.418 159.091 29.652 150.74 31.324 155.391 19.707 159.566 34.433 164.041 36.331 169.323 23.894 165.505 13.097 177.674 11.199 172.392 18.763 163.914ZM31.4 188.495L37.238 196.47 41.226 193.551C41.773 193.151 42.213 192.669 42.548 192.105 42.883 191.54 43.098 190.946 43.195 190.32 43.292 189.695 43.266 189.063 43.118 188.424 42.969 187.785 42.695 187.192 42.294 186.645V186.645C41.894 186.098 41.413 185.66 40.853 185.331 40.289 184.996 39.694 184.78 39.069 184.683 38.444 184.587 37.81 184.61 37.167 184.753 36.528 184.901 35.935 185.176 35.388 185.576V185.576ZM44.144 197.539L32.198 206.284 29.279 202.296 33.267 199.377 27.429 191.402 23.441 194.321 20.534 190.35 32.481 181.605C33.586 180.796 34.774 180.245 36.047 179.952 37.323 179.665 38.585 179.615 39.831 179.803 41.078 179.991 42.264 180.417 43.388 181.081 44.512 181.745 45.477 182.626 46.282 183.726V183.726C47.091 184.831 47.642 186.02 47.935 187.292 48.228 188.565 48.277 189.826 48.084 191.077 47.89 192.327 47.462 193.515 46.798 194.639 46.134 195.764 45.249 196.73 44.145 197.539ZM54.317 212.762L62.267 218.634 65.203 214.659C65.606 214.114 65.883 213.522 66.034 212.884 66.186 212.245 66.214 211.613 66.12 210.988 66.026 210.362 65.813 209.766 65.481 209.201 65.148 208.635 64.71 208.151 64.164 207.748V207.748C63.619 207.345 63.03 207.07 62.397 206.923 61.759 206.772 61.127 206.743 60.501 206.837 59.875 206.932 59.277 207.143 58.706 207.471 58.14 207.803 57.656 208.242 57.253 208.787V208.787ZM69.179 217.595L60.383 229.504 56.408 226.568 59.344 222.593 51.393 216.721 48.457 220.696 44.499 217.772 53.294 205.863C54.108 204.762 55.078 203.882 56.206 203.222 57.338 202.567 58.528 202.144 59.774 201.952 61.02 201.759 62.278 201.813 63.549 202.111 64.821 202.41 66.004 202.963 67.1 203.773V203.773C68.202 204.587 69.082 205.557 69.741 206.684 70.4 207.811 70.824 209.001 71.012 210.252 71.2 211.504 71.145 212.765 70.847 214.036 70.548 215.307 69.992 216.494 69.179 217.595ZM104.745 227.65L99.336 244.431 94.642 242.918 100.051 226.137C100.157 225.808 100.194 225.481 100.163 225.158 100.126 224.833 100.035 224.529 99.891 224.247 99.746 223.966 99.551 223.721 99.304 223.514 99.06 223.3 98.777 223.141 98.454 223.037V223.037C98.125 222.931 97.799 222.893 97.475 222.924 97.154 222.949 96.852 223.033 96.571 223.178 96.289 223.322 96.042 223.516 95.827 223.761 95.613 224.005 95.453 224.292 95.347 224.621V224.621L89.938 241.403 85.244 239.89 90.653 223.108C90.759 222.779 90.797 222.453 90.766 222.129 90.735 221.806 90.647 221.503 90.503 221.222 90.358 220.94 90.163 220.696 89.917 220.488 89.672 220.274 89.386 220.114 89.056 220.008V220.008C88.734 219.904 88.411 219.867 88.087 219.898 87.766 219.923 87.465 220.008 87.183 220.152 86.895 220.294 86.647 220.488 86.44 220.735 86.226 220.979 86.066 221.266 85.96 221.595V221.595L80.551 238.377 75.847 236.861 81.256 220.079C81.57 219.105 82.049 218.248 82.693 217.508 83.336 216.775 84.079 216.192 84.924 215.759 85.771 215.32 86.681 215.058 87.656 214.973 88.632 214.882 89.605 214.992 90.572 215.304V215.304C91.45 215.587 92.242 216.013 92.949 216.583 93.653 217.159 94.234 217.845 94.69 218.64V218.64C95.524 218.26 96.395 218.043 97.304 217.987 98.204 217.935 99.092 218.05 99.97 218.333V218.333C100.938 218.645 101.791 219.123 102.531 219.767 103.273 220.405 103.859 221.15 104.29 222.001 104.723 222.846 104.986 223.753 105.079 224.723 105.17 225.7 105.059 226.675 104.745 227.65ZM116.384 231.382L130.843 231.511 130.801 236.188 116.342 236.059ZM164.008 212.824L169.109 229.702C169.403 230.675 169.496 231.649 169.386 232.624 169.277 233.599 168.999 234.505 168.55 235.341 168.102 236.178 167.502 236.911 166.751 237.542 166 238.173 165.138 238.635 164.164 238.929V238.929C163.282 239.196 162.391 239.295 161.492 239.227 160.589 239.167 159.724 238.94 158.896 238.546V238.546C158.426 239.332 157.831 240 157.112 240.551 156.395 241.107 155.595 241.519 154.713 241.786V241.786C153.74 242.08 152.765 242.172 151.791 242.063 150.816 241.954 149.91 241.676 149.074 241.227 148.237 240.779 147.503 240.179 146.873 239.428 146.242 238.677 145.78 237.814 145.485 236.841V236.841L140.385 219.963 145.115 218.533 150.216 235.411C150.316 235.742 150.471 236.032 150.68 236.28 150.885 236.537 151.131 236.739 151.416 236.886 151.695 237.036 151.996 237.129 152.318 237.166 152.641 237.203 152.965 237.173 153.289 237.075V237.075C153.62 236.975 153.91 236.82 154.158 236.61 154.406 236.401 154.605 236.156 154.755 235.878 154.904 235.599 154.996 235.295 155.031 234.965 155.068 234.643 155.037 234.316 154.937 233.985V233.985L149.836 217.107 154.557 215.68 159.658 232.558C159.758 232.889 159.912 233.179 160.122 233.427 160.333 233.682 160.579 233.884 160.857 234.033 161.136 234.183 161.437 234.276 161.76 234.313 162.083 234.35 162.41 234.318 162.741 234.218V234.218C163.065 234.12 163.351 233.966 163.6 233.757 163.848 233.547 164.047 233.303 164.196 233.024 164.346 232.745 164.441 232.44 164.483 232.109 164.52 231.786 164.488 231.459 164.388 231.128V231.128L159.287 214.25ZM184.428 217.264L192.474 211.523 189.603 207.5C189.209 206.949 188.732 206.502 188.172 206.161 187.612 205.819 187.02 205.596 186.396 205.492 185.772 205.388 185.139 205.406 184.499 205.547 183.858 205.687 183.262 205.955 182.71 206.348V206.348C182.158 206.742 181.714 207.217 181.378 207.773 181.037 208.334 180.814 208.926 180.71 209.55 180.605 210.174 180.621 210.808 180.756 211.453 180.897 212.094 181.164 212.69 181.558 213.242V213.242ZM193.626 204.63L202.226 216.681 198.203 219.552 195.332 215.529 187.287 221.27 190.158 225.293 186.152 228.152 177.552 216.1C176.756 214.986 176.22 213.791 175.942 212.515 175.67 211.235 175.636 209.973 175.839 208.728 176.042 207.484 176.482 206.304 177.159 205.188 177.837 204.071 178.73 203.117 179.839 202.326V202.326C180.954 201.53 182.149 200.994 183.425 200.716 184.701 200.439 185.963 200.404 187.211 200.613 188.459 200.821 189.642 201.264 190.758 201.942 191.874 202.619 192.83 203.515 193.626 204.63ZM220.665 187.705L224.572 190.732 213.984 204.396 194.468 189.274 197.495 185.367 213.104 197.463ZM224.184 169.314L227.859 160.139 223.271 158.302C222.642 158.05 221.999 157.931 221.343 157.946 220.688 157.961 220.069 158.093 219.487 158.342 218.905 158.591 218.383 158.947 217.919 159.412 217.456 159.876 217.098 160.423 216.846 161.052V161.052C216.594 161.681 216.477 162.321 216.494 162.97 216.509 163.626 216.641 164.245 216.89 164.827 217.139 165.408 217.494 165.934 217.956 166.404 218.42 166.867 218.967 167.225 219.596 167.477V167.477ZM225.108 153.714L238.852 159.219 237.015 163.806 232.427 161.969 228.753 171.144 233.34 172.982 231.51 177.55 217.766 172.046C216.495 171.537 215.399 170.82 214.476 169.895 213.556 168.965 212.846 167.921 212.346 166.764 211.845 165.607 211.579 164.375 211.547 163.07 211.515 161.765 211.752 160.48 212.259 159.215V159.215C212.768 157.943 213.484 156.847 214.409 155.924 215.333 155.002 216.377 154.292 217.54 153.794 218.704 153.296 219.938 153.031 221.244 152.999 222.549 152.967 223.837 153.205 225.108 153.714ZM1.153 124.739C1.153 119.458 5.435 115.176 10.716 115.176 15.998 115.176 20.279 119.458 20.279 124.739 20.279 130.021 15.998 134.303 10.716 134.303 5.435 134.303 1.153 130.021 1.153 124.739ZM224.67 124.739C224.67 119.458 228.951 115.176 234.233 115.176 239.515 115.176 243.796 119.458 243.796 124.739 243.796 130.021 239.515 134.303 234.233 134.303 228.951 134.303 224.67 130.021 224.67 124.739Z" fill="#010c80" data-fill-palette-color="accent"></path></svg></g></svg></g><g></g></svg></g><defs></defs></svg><rect width="273.2436702716588" height="247.2" fill="none" stroke="none" visibility="hidden"></rect></g></svg></g></svg>